<svg xmlns="http://www.w3.org/2000/svg" xmlns:xlink="http://www.w3.org/1999/xlink" width="16" height="16" viewBox="0 0 16 16"><defs><linearGradient id="b" x1="-137.5" x2="-125.5" y1="1045.239" y2="1045.239" gradientTransform="translate(139.503 -.304)" gradientUnits="userSpaceOnUse" xlink:href="#a"/><linearGradient id="a"><stop offset="0" stop-color="#fc6a28"/><stop offset="1" stop-color="#f94045"/></linearGradient></defs><path fill="url(#b)" fill-rule="evenodd" d="m 5.8199972,1039.5052 c -0.9768,0 -1.95465,0.3744 -2.70313,1.1231 -1.38535,1.3853 -1.47176,3.5449 -0.29297,5.0469 0.96214,1.1893 3.60232,3.5499 4.69531,4.5117 0.26618,0.2343 0.69944,0.2332 0.96485,0 0.80204,-0.7114 2.4414498,-2.1847 3.6562508,-3.4004 l -0.974611,-0.877 c -0.0427,-0.013 -0.0852,-0.026 -0.11133,0.059 l -0.35156,1.1563 c -0.0261,0.091 -0.11158,0.064 -0.14063,0.01 l -1.8788998,-3.5743 c -0.0302,-0.059 0.0391,-0.1282 0.0684,-0.072 l 1.6777298,1.4004 c 0.0303,0.059 0.0866,0.026 0.0996,-0.016 l 0.3125,-1.0273 c 0.0131,-0.048 0.11159,-0.066 0.14062,-0.01 l 2.314461,1.666 c 1.04502,-1.4914 0.92784,-3.537 -0.40625,-4.8711 -1.335831,-1.3359 -3.3943308,-1.47 -4.8867208,-0.4218 -0.65615,-0.4608 -1.41713,-0.6992 -2.18359,-0.6992 l 0,0 z" transform="translate(0 -1036.362)"/></svg>