<svg width="250" height="123" viewBox="0 0 250 123" fill="none" xmlns="http://www.w3.org/2000/svg">
<path d="M73.0276 49.4389V61.8972M73.0276 74.3556V61.8972M73.0276 61.8972H86.658M86.658 61.8972V49.4389M86.658 61.8972V74.3556" stroke="white" stroke-width="4"/>
<path d="M96.8809 74.3556V52.5535H113.919V61.8972H102.511L113.919 74.3556" stroke="white" stroke-width="4"/>
<path d="M165.324 52.4843H151.724V62.4509H161.924V72.4176H150.324" stroke="white" stroke-width="4"/>
<path d="M189.324 52.4843H173.781V62.4509H185.438V72.4176H172.324" stroke="white" stroke-width="4"/>
<path d="M220.288 44.8125C221.392 44.8125 222.288 43.9171 222.288 42.8125C222.288 41.7079 221.392 40.8125 220.288 40.8125V44.8125ZM50.1578 44.8125H60.3806V40.8125H50.1578V44.8125ZM60.3806 44.8125H70.6034V40.8125H60.3806V44.8125ZM58.3806 42.8125V80.1875H62.3806V42.8125H58.3806ZM60.3806 44.8125L220.288 44.8125V40.8125L60.3806 40.8125V44.8125ZM220.288 40.8125L29.7121 40.8125V44.8125L220.288 44.8125V40.8125Z" fill="white"/>
<path d="M210.324 61.4096V52.4843H196.324V61.4096M210.324 61.4096H201.924H196.324M210.324 61.4096H196.324M210.324 61.4096V74.6324M196.324 61.4096V74.6324" stroke="white" stroke-width="4"/>
<path d="M121.424 50.2694L130.441 60.0932H132.424M143.424 50.2694L134.408 60.0932H132.424M132.424 60.0932V74.6324" stroke="white" stroke-width="4"/>
</svg>
