<svg width="32" height="32" viewBox="0 0 32 32" fill="none" xmlns="http://www.w3.org/2000/svg">
<path d="M24.687 30.163C24.285 30.163 23.844 30.031 23.367 29.768L12.564 21.792C12.443 21.703 12.369 21.564 12.361 21.414C12.354 21.264 12.414 21.119 12.526 21.018L25.322 9.503C25.527 9.318 25.843 9.334 26.028 9.54C26.213 9.745 26.196 10.061 25.991 10.246L13.651 21.352L23.905 28.928C24.176 29.073 24.634 29.257 24.96 29.106C25.292 28.954 25.456 28.469 25.536 28.089L29.911 7.472C30.081 6.791 29.999 6.243 29.696 5.991C29.465 5.799 29.121 5.785 28.749 5.953L3.03299 15.871C2.24399 16.188 1.99599 16.514 1.99999 16.622C2.00299 16.693 2.17299 16.889 2.67999 17.044L9.05499 19.034L16.054 14.618C16.288 14.472 16.596 14.541 16.743 14.774C16.89 15.007 16.821 15.316 16.587 15.463L9.39299 20.002C9.26899 20.08 9.11599 20.1 8.97699 20.057L2.38499 17.999C1.21499 17.641 1.01499 17.009 1.00099 16.664C0.980992 16.191 1.25399 15.507 2.66799 14.941L28.363 5.033C29.06 4.715 29.808 4.783 30.337 5.224C30.95 5.735 31.15 6.637 30.886 7.698L26.515 28.296C26.331 29.174 25.949 29.753 25.378 30.015C25.163 30.114 24.933 30.163 24.687 30.163Z" fill="white"/>
<path d="M24.687 30.163C24.285 30.163 23.844 30.031 23.367 29.768L16.647 24.809C16.425 24.645 16.377 24.331 16.542 24.11C16.706 23.888 17.02 23.84 17.241 24.005L23.905 28.928C24.176 29.073 24.634 29.257 24.96 29.106C25.292 28.954 25.456 28.469 25.536 28.089L29.911 7.472C30.081 6.791 29.999 6.243 29.696 5.991C29.465 5.799 29.121 5.785 28.749 5.953L3.03299 15.871C2.24399 16.188 1.99599 16.514 1.99999 16.622C2.00299 16.693 2.17299 16.889 2.67999 17.044L9.27399 19.102C9.43199 19.151 9.55499 19.276 9.60399 19.434L11.871 26.895C11.932 27.062 11.979 27.228 12.02 27.372C12.052 27.486 12.092 27.628 12.119 27.67C12.115 27.665 12.195 27.689 12.408 27.69C12.855 27.69 13.025 27.523 13.365 27.192L15.025 25.578C15.223 25.384 15.539 25.39 15.732 25.588C15.924 25.786 15.92 26.103 15.722 26.295L14.09 27.88C13.688 28.273 13.262 28.689 12.408 28.689C11.428 28.689 11.23 28.255 11.057 27.643C11.022 27.519 10.982 27.376 10.922 27.211L8.72399 19.978L2.38499 17.999C1.21499 17.641 1.01499 17.009 1.00099 16.664C0.980992 16.191 1.25399 15.507 2.66799 14.941L28.363 5.033C29.06 4.715 29.808 4.783 30.337 5.224C30.95 5.735 31.15 6.637 30.886 7.698L26.515 28.296C26.331 29.174 25.949 29.753 25.378 30.015C25.163 30.114 24.933 30.163 24.687 30.163Z" fill="white"/>
<path d="M18.5 14C18.5 14.275 18.275 14.5 18 14.5C17.725 14.5 17.5 14.275 17.5 14C17.5 13.725 17.725 13.5 18 13.5C18.275 13.5 18.5 13.725 18.5 14Z" fill="white"/>
</svg>
